<svg id="Layer_1" data-name="Layer 1" xmlns="http://www.w3.org/2000/svg" viewBox="0 0 243.77 247.45"><defs><style>.cls-1{fill:#efce4a;}.cls-2{fill:#f7e6a1;}.cls-3{fill:#556080;}.cls-4{fill:#e44d26;}.cls-5{fill:#f16529;}.cls-6{fill:#ebebeb;}.cls-7{fill:#fff;}.cls-8{fill:#264de4;}.cls-9{fill:#2965f1;}.cls-10{fill:#e5a229;}.cls-11{fill:#f1be21;}.cls-12{fill:#ebeaea;}.cls-13{fill:#231f20;}</style></defs><title>icons</title><path class="cls-1" d="M695.87,324.18a1.65,1.65,0,0,0-1.65,1.65v6.6a1.65,1.65,0,0,0,3.3,0v-6.6A1.65,1.65,0,0,0,695.87,324.18Z" transform="translate(-570.3 -252)"/><path class="cls-1" d="M735.46,363.78h-6.6a1.65,1.65,0,0,0,0,3.3h6.6a1.65,1.65,0,0,0,0-3.3Z" transform="translate(-570.3 -252)"/><path class="cls-1" d="M662.87,363.78h-6.6a1.65,1.65,0,0,0,0,3.3h6.6a1.65,1.65,0,0,0,0-3.3Z" transform="translate(-570.3 -252)"/><path class="cls-1" d="M722.7,336.26,718,340.93a1.65,1.65,0,1,0,2.33,2.33L725,338.6a1.65,1.65,0,1,0-2.33-2.33Z" transform="translate(-570.3 -252)"/><path class="cls-1" d="M671.37,387.6l-4.67,4.67a1.65,1.65,0,1,0,2.33,2.33l4.67-4.67a1.65,1.65,0,0,0-2.33-2.33Z" transform="translate(-570.3 -252)"/><path class="cls-1" d="M720.37,387.6a1.65,1.65,0,0,0-2.33,2.33l4.67,4.67a1.65,1.65,0,1,0,2.33-2.33Z" transform="translate(-570.3 -252)"/><path class="cls-1" d="M669,336.26a1.65,1.65,0,0,0-2.33,2.33l4.67,4.67a1.65,1.65,0,1,0,2.33-2.33Z" transform="translate(-570.3 -252)"/><path class="cls-1" d="M695.87,339a26.39,26.39,0,0,0-8.25,51.46v16.18h3.3v4.95h9.9v-4.95h3.3V390.49A26.39,26.39,0,0,0,695.87,339Z" transform="translate(-570.3 -252)"/><path class="cls-2" d="M677.72,367.08a1.65,1.65,0,0,1-1.65-1.65,19.82,19.82,0,0,1,19.8-19.8,1.65,1.65,0,0,1,0,3.3,16.52,16.52,0,0,0-16.5,16.5A1.65,1.65,0,0,1,677.72,367.08Z" transform="translate(-570.3 -252)"/><polygon class="cls-3" points="117.32 143.13 117.32 154.67 120.62 154.67 120.62 159.62 130.52 159.62 130.52 154.67 133.82 154.67 133.82 143.13 117.32 143.13"/><path d="M781.91,340.94l2.59,1.13-1.12,2.57,2.39,1,1.12-2.57,2.59,1.13-3.4,7.78-2.59-1.13,1.13-2.59-2.37-1-1.13,2.59-2.62-1.14m13.27-.38-2.29-1,1.13-2.59,7.18,3.13-1.13,2.59-2.3-1-2.26,5.19-2.59-1.13m9.43-5.15,2.72,1.19.47,3.47,2.86-2,2.72,1.19-3.4,7.78-2.59-1.13,1.68-3.86-3,2-.6-3.59-1.68,3.86-2.55-1.11M809,352.77l2.59,1.13-2.27,5.21,3.68,1.6-1.12,2.57-6.27-2.74" transform="translate(-570.3 -252)"/><path class="cls-4" d="M758.64,394l14.51-43.4,40.92,17.85L792.12,408.6l-18.8-2.67" transform="translate(-570.3 -252)"/><path class="cls-5" d="M774.91,402.39,792.11,363l16.72,7.3-18.74,34.24" transform="translate(-570.3 -252)"/><path class="cls-6" d="M777,362.48l12.86,5.61-2.23,5.12L780.41,370l-1.81,5.45,6.77,3-2.23,5.11-11.46-5m-.9,2.67,5.14,2.24-1.43,4.25,5.06,4-2.33,5.35L768,389.59" transform="translate(-570.3 -252)"/><path class="cls-7" d="M802.69,373.68l-12.83-5.6-2.23,5.12L800,378.59m-2.75,5-11.9-5.19-2.23,5.12,6.32,2.76-3.5,6.39-6.39-1-2.32,5.32L789,398.74" transform="translate(-570.3 -252)"/><g id="css3"><g id="g3013"><polygon id="polygon2989" class="cls-8" points="65.24 182.99 49.93 244.42 23.85 247.45 0 236.63 4.19 173.44 65.24 182.99"/><polygon id="polygon2991" class="cls-9" points="45.79 239.71 58.87 187.21 33.91 183.31 24.71 242.15 45.79 239.71"/><polygon id="polygon2993" class="cls-6" points="12.51 203.64 12 211.39 29.11 214.06 30.3 206.42 12.51 203.64"/><polygon id="polygon2995" class="cls-6" points="32.72 190.95 32.69 190.95 13.55 187.96 13.05 195.71 31.52 198.6 32.72 190.95"/><polygon id="polygon2997" class="cls-6" points="25.95 234.22 27.2 226.27 27.16 226.28 19.01 222.65 19.42 216.47 15.28 215.82 11.75 215.27 10.94 227.43 25.92 234.23 25.95 234.22"/><path id="path2999" d="M591.5,410.75l9.26,1.45-.61,3.87-5.39-.84-.61,3.87,5.39.84-.61,3.87-9.26-1.45Z" transform="translate(-570.3 -252)"/><path id="path3001" d="M602.61,412.49l9.26,1.45-.53,3.37-5.39-.84-.11.67,5.39.84L610,425.72l-9.26-1.45.55-3.53,5.39.84.11-.67-5.39-.84Z" transform="translate(-570.3 -252)"/><path id="path3003" d="M613.72,414.23l9.26,1.45-.53,3.37-5.39-.84-.11.67,5.39.84-1.21,7.74L611.87,426l.55-3.53,5.39.84.11-.67-5.39-.84Z" transform="translate(-570.3 -252)"/><polygon id="polygon3005" class="cls-7" points="38.49 215.53 36.05 225.31 27.17 226.27 25.93 234.22 42.27 232.33 42.59 231.06 47.53 211.22 48.04 209.2 51.84 193.94 32.69 190.95 31.5 198.59 42.27 200.28 40.35 207.99 30.27 206.42 29.08 214.06 38.49 215.53"/></g></g><g id="javascript"><polygon class="cls-10" points="55.8 5.98 35.6 14.15 35.6 14.15 15.4 22.32 35.79 61.85 54.09 59.87 54.09 59.87 54.09 59.87 54.09 59.87 54.09 59.87 68.61 48.58 55.8 5.98"/><polygon class="cls-11" points="36.95 17.49 52.68 56.39 52.68 56.39 64.45 47.25 53.48 10.81 36.95 17.49"/><polygon class="cls-7" points="49.56 18.26 29.12 26.52 33.92 42.47 33.91 42.36 51.27 35.34 53.34 42.08 48.44 45.91 42.16 46.56 40.24 42.77 35.13 44.83 39.04 52.4 50.56 51.16 59.72 44.04 54.9 28.03 36.47 35.48 34.62 30.24 47.41 25.07 48.79 27.94 53.94 25.85 49.56 18.26"/><path class="cls-12" d="M609.29,274.53l-9.87,4,4.8,16v-.11l11.26-4.55-2-5-6,2.41L605.63,282l5.72-2.31Zm1.25,20.23-5.11,2.06,3.91,7.57,11.52-1.25-2.12-5.24-6.28.65Z" transform="translate(-570.3 -252)"/><polygon class="cls-13" points="29.22 9.68 25.63 11.13 26.67 13.71 30.26 12.26 32.19 11.48 32.84 11.22 29.74 3.55 27.16 4.59 29.22 9.68"/><path class="cls-13" d="M608.93,252l-6.27,2.53,1.09,2.68c1.18.5,1.78.72,3.48,1.45l-2.49,1,1,2.45,6.27-2.53-1-2.45-3.49-1.44,2.5-1Z" transform="translate(-570.3 -252)"/></g></svg>